<?xml version="1.0" encoding="utf-8"?>
<svg version="1.1" id="Capa_1" xmlns="http://www.w3.org/2000/svg" xmlns:xlink="http://www.w3.org/1999/xlink" x="0px" y="0px"
	 viewBox="0 0 30 30" style="enable-background:new 0 0 30 30;" xml:space="preserve" width="30px" height="30px">
<style type="text/css">
	.st0{fill:#010002;}
</style>
<g>
	<g>
		<g>
			<path class="st0" d="M15,0C6.7,0,0,6.7,0,15s6.7,15,15,15s15-6.7,15-15S23.3,0,15,0z M15,28C7.8,28,2,22.2,2,15S7.8,2,15,2
				s13,5.8,13,13S22.2,28,15,28z"/>
			<path class="st0" d="M15.6,10.2c-0.2-0.2-0.5-0.3-0.7-0.3c-0.3,0-0.5,0.1-0.7,0.3l-6.5,6.5c-0.4,0.4-0.4,1,0,1.4
				c0.4,0.4,1,0.4,1.4,0l5.8-5.8l5.8,5.8c0.4,0.4,1,0.4,1.4,0c0.4-0.4,0.4-1,0-1.4L15.6,10.2z"/>
		</g>
	</g>
</g>
</svg>
