<?xml version="1.0" encoding="utf-8"?>
<!-- Generator: Adobe Illustrator 20.1.0, SVG Export Plug-In . SVG Version: 6.00 Build 0)  -->
<svg version="1.1" id="Layer_1" xmlns="http://www.w3.org/2000/svg" xmlns:xlink="http://www.w3.org/1999/xlink" x="0px" y="0px"
	 viewBox="0 0 26 12" style="enable-background:new 0 0 26 12;" xml:space="preserve">
<style type="text/css">
	.st0{fill-rule:evenodd;clip-rule:evenodd;}
</style>
<path class="st0" d="M14.6,2.1c1.7,0,2.8,2.1,3.9,3.5c0.8,1.1,2.3,2.6,3.8,2.6c0.9,0,2-0.4,2-1.9c0-1.1-0.8-1.6-1.2-1.7
	c-0.2-0.1-0.2-0.2-0.2-0.4c0-0.2,0.4-1,1.4-1c1.1,0,1.7,1,1.7,1.9c0,1.4-1.2,2.7-1.8,3.3c-0.3,0.4-0.5,0.5-0.8,0.9
	c-1,1.8-3.9,2.6-6,2.6c-2.2,0-4.3-0.6-6.2-1.9C9.6,8.8,9.1,7.7,9.1,6.5c0-1,0.5-1.6,1-1.8C9,3,7.8,1.1,5.3,1.1
	c-2.5,0-3.5,1.6-3.5,3.4c0,2.9,2.5,4.4,3.6,4.4c0.3,0,0.3,0.2,0.1,0.3C4.9,9.7,4.3,9.9,3.7,9.9C1.8,9.9,0,8.1,0,5.8C0,2.4,3.3,0,6,0
	c1.8,0,3.2,0.8,4.7,2.8c0.9,1.3,2.3,3.8,4.3,5.4c1.8,1.4,3.4,1.8,4.4,1.8H20V9.9c-2.3-0.5-3.5-1.9-4.2-2.6c-0.8-0.7-2.4-2.6-3.2-4.2
	C13,2.5,13.7,2.1,14.6,2.1L14.6,2.1z" fill="#fff"/>
</svg>
