<?xml version="1.0" encoding="utf-8"?>
<!-- Generator: Adobe Illustrator 20.1.0, SVG Export Plug-In . SVG Version: 6.00 Build 0)  -->
<svg version="1.1" id="Layer_1" xmlns="http://www.w3.org/2000/svg" xmlns:xlink="http://www.w3.org/1999/xlink" x="0px" y="0px"
	 viewBox="0 0 16 16" style="enable-background:new 0 0 16 16;" xml:space="preserve">
<path d="M12.4,8.4c-0.4-0.5-0.9-0.8-1.6-1V7.4c0.5-0.2,0.9-0.6,1.1-1c0.3-0.4,0.4-1,0.4-1.5c0-0.5-0.1-0.9-0.3-1.3
	c-0.2-0.4-0.5-0.7-0.9-0.9c-0.4-0.2-0.8-0.4-1.2-0.4C9.5,2,8.9,2,8.1,2H4v12h4.6c0.8,0,1.4-0.1,1.9-0.2c0.5-0.2,1-0.4,1.4-0.8
	c0.4-0.3,0.6-0.7,0.8-1.1c0.2-0.5,0.3-1,0.3-1.6C13,9.5,12.8,8.9,12.4,8.4z M9.4,6.1C9.3,6.3,9.2,6.4,8.9,6.6
	C8.8,6.6,8.5,6.7,8.2,6.7c-0.3,0-0.7,0-1.1,0H6.7V4.2H7c0.5,0,0.9,0,1.2,0c0.3,0,0.5,0.1,0.7,0.1c0.2,0.1,0.4,0.2,0.5,0.4
	C9.5,5,9.5,5.2,9.5,5.4C9.5,5.7,9.5,5.9,9.4,6.1z M10,11.1c-0.1,0.2-0.3,0.4-0.6,0.5c-0.3,0.1-0.6,0.2-0.9,0.2c-0.3,0-0.9,0-1.6,0
	H6.7v-3h0.6c0.4,0,0.8,0,1.2,0c0.4,0,0.7,0,0.9,0.1C9.6,9,9.9,9.2,10,9.4c0.1,0.2,0.2,0.5,0.2,0.9C10.2,10.6,10.1,10.8,10,11.1z" fill="#ff00ff"/>
</svg>
