<?xml version="1.0" encoding="utf-8"?>
<!-- Generator: Adobe Illustrator 20.1.0, SVG Export Plug-In . SVG Version: 6.00 Build 0)  -->
<svg version="1.1" id="Layer_1" xmlns="http://www.w3.org/2000/svg" xmlns:xlink="http://www.w3.org/1999/xlink" x="0px" y="0px"
	 viewBox="0 0 16 16" style="enable-background:new 0 0 16 16;" xml:space="preserve">
<style type="text/css">
	.st0{fill-rule:evenodd;clip-rule:evenodd;}
</style>
<path class="st0" d="M10,14H6c-2.2,0-4-1.8-4-4V6c0-2.2,1.8-4,4-4h4c2.2,0,4,1.8,4,4v4C14,12.2,12.2,14,10,14z M8,5C6.3,5,5,6.3,5,8
	c0,1.7,1.3,3,3,3c1.7,0,3-1.3,3-3C11,6.3,9.7,5,8,5z M11.5,4C11.2,4,11,4.2,11,4.5C11,4.8,11.2,5,11.5,5S12,4.8,12,4.5
	C12,4.2,11.8,4,11.5,4z M8,10c-1.1,0-2-0.9-2-2c0-1.1,0.9-2,2-2c1.1,0,2,0.9,2,2C10,9.1,9.1,10,8,10z" fill="#ff00ff"/>
</svg>
