<?xml version="1.0" encoding="utf-8"?>
<!-- Generator: Adobe Illustrator 20.1.0, SVG Export Plug-In . SVG Version: 6.00 Build 0)  -->
<svg version="1.1" id="Layer_1" xmlns="http://www.w3.org/2000/svg" xmlns:xlink="http://www.w3.org/1999/xlink" x="0px" y="0px"
	 viewBox="0 0 16 16" style="enable-background:new 0 0 16 16;" xml:space="preserve">
<style type="text/css">
	.st0{fill-rule:evenodd;clip-rule:evenodd;}
</style>
<path class="st0" d="M13.9,12.8c-0.1,0.1-0.2,0.1-0.4,0.1l-5.6-1.5l3.3-6.6c0.2-0.3,0-0.5-0.1-0.6c-0.2-0.2-0.6,0-0.8,0.3l-4.9,6.7
	l-3.1,0.2c0,0-0.1,0-0.1,0c-0.1,0-0.1,0-0.2,0c0-0.1,0.1-0.2,0.3-0.4l9.5-8.8C11.9,2,12,2,12.1,2c0.1,0,0.2,0.2,0.3,0.5l1.6,9.8
	C14,12.6,14,12.7,13.9,12.8z M7.2,11.4l-0.1,0.1l0.7,2.3l-1.9-2.4l3.9-5.3L7.2,11.4z M8.5,14C8.5,14,8.5,14,8.5,14l-0.6-2l1.3,0.4
	C8.9,13.2,8.6,13.9,8.5,14z"/>
</svg>
