<?xml version="1.0" encoding="utf-8"?>
<!-- Generator: Adobe Illustrator 20.1.0, SVG Export Plug-In . SVG Version: 6.00 Build 0)  -->
<svg version="1.1" id="Layer_1" xmlns="http://www.w3.org/2000/svg" xmlns:xlink="http://www.w3.org/1999/xlink" x="0px" y="0px"
	 viewBox="0 0 16 16" style="enable-background:new 0 0 16 16;" xml:space="preserve">
<path d="M14,4.2c-0.4,0.2-0.9,0.3-1.4,0.4c0.5-0.3,0.9-0.8,1.1-1.4c-0.5,0.3-1,0.5-1.6,0.6C11.7,3.3,11,3,10.3,3
	C8.9,3,7.8,4.1,7.8,5.5c0,0.2,0,0.4,0.1,0.6C5.9,6,4,5,2.8,3.5C2.6,3.8,2.5,4.3,2.5,4.7c0,0.9,0.4,1.6,1.1,2.1
	c-0.4,0-0.8-0.1-1.1-0.3c0,0,0,0,0,0c0,1.2,0.8,2.2,2,2.5C4.3,9.1,4,9.1,3.8,9.1c-0.2,0-0.3,0-0.5,0c0.3,1,1.2,1.7,2.3,1.8
	c-0.8,0.7-1.9,1.1-3.1,1.1c-0.2,0-0.4,0-0.6,0C3.1,12.6,4.4,13,5.8,13c4.5,0,7-3.8,7-7.2c0-0.1,0-0.2,0-0.3
	C13.3,5.1,13.7,4.7,14,4.2z" fill="#fff"/>
</svg>
