<?xml version="1.0" encoding="utf-8"?>
<!-- Generator: Adobe Illustrator 20.1.0, SVG Export Plug-In . SVG Version: 6.00 Build 0)  -->
<svg version="1.1" id="Layer_1" xmlns="http://www.w3.org/2000/svg" xmlns:xlink="http://www.w3.org/1999/xlink" x="0px" y="0px"
	 viewBox="0 0 32 20" style="enable-background:new 0 0 32 20;" xml:space="preserve">
<style type="text/css">
	.st0{fill-rule:evenodd;clip-rule:evenodd;}
</style>
<path class="st0" d="M26.6,20c-0.5-1.6-5.1-2.9-10.6-2.9c-5.5,0-10.1,1.3-10.6,2.9C2.1,18.8,0,16.9,0,14.1c0-3.8,5.3-1.6,5.3-1.6
	c0,1.8,4.8,3.2,10.7,3.2c5.9,0,10.7-1.4,10.7-3.2c0,0,5.3-2.2,5.3,1.6C32,16.9,29.9,18.8,26.6,20z M16,14.2
	c-5.9,0-10.7-1.4-10.7-3.2v-0.4C5.3,4.7,8,0,16,0c8,0,10.7,4.7,10.7,10.6V11C26.7,12.7,21.9,14.2,16,14.2z"/>
</svg>
