<?xml version="1.0" encoding="utf-8"?>
<!-- Generator: Adobe Illustrator 20.1.0, SVG Export Plug-In . SVG Version: 6.00 Build 0)  -->
<svg version="1.1" id="Layer_1" xmlns="http://www.w3.org/2000/svg" xmlns:xlink="http://www.w3.org/1999/xlink" x="0px" y="0px"
	 viewBox="0 0 40 64" style="enable-background:new 0 0 40 64;" xml:space="preserve">
<path d="M20.7,0C11.6,0,5,3.5,0,9.4l8.9,6.9c3.2-3.6,6.7-5.4,10.3-5.4c3.9,0,6.2,1.8,6.2,5c0,7.2-14,6.2-14,21.4v2.7h12.7v-2.2
	C24.1,28,40,29,40,14.7C40,6.9,33.6,0,20.7,0z M17.9,48.1c-4.4,0-7.9,3.6-7.9,7.9c0,4.4,3.5,8,7.9,8c4.4,0,7.9-3.6,7.9-8
	C25.9,51.7,22.3,48.1,17.9,48.1z" fill="#ffffff"/>
</svg>
