<?xml version="1.0" encoding="utf-8"?>
<!-- Generator: Adobe Illustrator 20.1.0, SVG Export Plug-In . SVG Version: 6.00 Build 0)  -->
<svg version="1.1" id="Layer_1" xmlns="http://www.w3.org/2000/svg" xmlns:xlink="http://www.w3.org/1999/xlink" x="0px" y="0px"
	 viewBox="0 0 47 49" style="enable-background:new 0 0 47 49;" xml:space="preserve">
<path d="M7.1,31.9C5.9,36.5,3.5,41.2,0,46.2L2.8,49c5.3-4.7,9.5-10.5,12.5-17.4c3-6.9,4.5-13.1,4.5-18.5c0-4.5-1-7.8-3-9.9
	C14.9,1.1,12.3,0,9.1,0c-2.8,0-5,1-6.6,3C0.8,5,0,7.4,0,10.2c0,2.6,0.9,4.7,2.6,6.3C4.4,18.2,6.5,19,9.1,19
	C9.1,23,8.4,27.3,7.1,31.9z M34.3,31.9c-1.3,4.6-3.7,9.3-7.1,14.3l2.8,2.8c5.3-4.7,9.5-10.5,12.5-17.4c3-6.9,4.5-13.1,4.5-18.5
	c0-4.5-1-7.8-3-9.9c-2-2.1-4.6-3.2-7.8-3.2c-2.8,0-5,1-6.6,3c-1.6,2-2.4,4.4-2.4,7.2c0,2.6,0.9,4.7,2.6,6.3c1.7,1.6,3.9,2.5,6.4,2.5
	C36.2,23,35.6,27.3,34.3,31.9z"/>
</svg>
