<?xml version="1.0" encoding="utf-8"?>
<!-- Generator: Adobe Illustrator 20.1.0, SVG Export Plug-In . SVG Version: 6.00 Build 0)  -->
<svg version="1.1" id="Layer_1" xmlns="http://www.w3.org/2000/svg" xmlns:xlink="http://www.w3.org/1999/xlink" x="0px" y="0px"
	 viewBox="0 0 40 40" style="enable-background:new 0 0 40 40;" xml:space="preserve">
<path d="M33,12.4c-0.9,0.4-1.9,0.7-2.9,0.8c1.1-0.6,1.9-1.6,2.3-2.8c-1,0.6-2.1,1-3.3,1.2c-0.9-1-2.3-1.6-3.7-1.6
	c-2.8,0-5.1,2.3-5.1,5c0,0.4,0,0.8,0.1,1.2C16,16,12.3,14,9.7,10.9C9.3,11.7,9,12.5,9,13.5c0,1.8,0.9,3.3,2.3,4.2
	c-0.8,0-1.6-0.3-2.3-0.6c0,0,0,0,0,0.1c0,2.4,1.8,4.5,4.1,4.9c-0.4,0.1-0.9,0.2-1.4,0.2c-0.3,0-0.7,0-1-0.1c0.7,2,2.5,3.5,4.8,3.5
	c-1.8,1.4-4,2.2-6.4,2.2c-0.4,0-0.8,0-1.2-0.1c2.3,1.4,5,2.3,7.9,2.3c9.4,0,14.6-7.7,14.6-14.4c0-0.2,0-0.4,0-0.7
	C31.4,14.3,32.3,13.4,33,12.4z" fill="#ffffff"/>
</svg>
