<?xml version="1.0" encoding="utf-8"?>
<!-- Generator: Adobe Illustrator 20.1.0, SVG Export Plug-In . SVG Version: 6.00 Build 0)  -->
<svg version="1.1" id="Layer_1" xmlns="http://www.w3.org/2000/svg" xmlns:xlink="http://www.w3.org/1999/xlink" x="0px" y="0px"
	 viewBox="0 0 16 16" style="enable-background:new 0 0 16 16;" xml:space="preserve">
<style type="text/css">
	.st0{fill-rule:evenodd;clip-rule:evenodd;}
</style>
<path class="st0" d="M13,13.5c-0.6,0-1-0.4-1-1C12,7.8,8.2,4,3.5,4c-0.6,0-1-0.4-1-1c0-0.6,0.4-1,1-1C9.3,2,14,6.7,14,12.5
	C14,13.1,13.6,13.5,13,13.5z M4,10c1.1,0,2,0.9,2,2c0,1.1-0.9,2-2,2c-1.1,0-2-0.9-2-2C2,10.9,2.9,10,4,10z M2.5,7c0-0.6,0.4-1,1-1
	C7.1,6,10,8.9,10,12.5c0,0.6-0.4,1-1,1c-0.6,0-1-0.4-1-1C8,10,6,8,3.5,8C2.9,8,2.5,7.6,2.5,7z" fill="#fff"/>
</svg>
