<?xml version="1.0" encoding="utf-8"?>
<!-- Generator: Adobe Illustrator 20.1.0, SVG Export Plug-In . SVG Version: 6.00 Build 0)  -->
<svg version="1.1" id="Layer_1" xmlns="http://www.w3.org/2000/svg" xmlns:xlink="http://www.w3.org/1999/xlink" x="0px" y="0px"
	 viewBox="0 0 32 8" style="enable-background:new 0 0 32 8;" xml:space="preserve">
<style type="text/css">
	.st0{fill-rule:evenodd;clip-rule:evenodd;}
</style>
<path class="st0" d="M3,0c-1,0.2-1.8,1.1-1.8,2.2c0,1.2,1,2.2,2.3,2.2c0.8,0,1.6-0.4,2-1.1h0C7.1,1.3,9.7,0,12.6,0l0,0
	C14.5,0,16,1.5,16,3.3c0,1.2-0.6,2.2-1.5,2.8l0,0C12.6,7.3,10.4,8,8,8C6.5,8,5,7.7,3.7,7.1c0,0-0.1,0-0.1,0c0,0,0,0,0,0
	C3,6.9,2.4,6.6,1.9,6.3C0.8,5.7,0,4.6,0,3.3C0,1.6,1.3,0.3,3,0z M19.4,0L19.4,0c2.9,0,5.5,1.3,7.1,3.3h0c0.4,0.7,1.1,1.1,2,1.1
	c1.3,0,2.3-1,2.3-2.2c0-1.1-0.8-2-1.8-2.2c1.7,0.2,3,1.6,3,3.3c0,1.3-0.8,2.4-1.9,2.9c-0.5,0.3-1.1,0.6-1.7,0.8c0,0,0,0,0,0
	c0,0-0.1,0-0.1,0C27,7.7,25.5,8,24,8c-2.4,0-4.6-0.7-6.5-1.9l0,0C16.6,5.5,16,4.5,16,3.3C16,1.5,17.5,0,19.4,0z"/>
</svg>
