<?xml version="1.0" encoding="utf-8"?>
<!-- Generator: Adobe Illustrator 19.2.1, SVG Export Plug-In . SVG Version: 6.00 Build 0)  -->
<svg version="1.1" id="Layer_1" xmlns="http://www.w3.org/2000/svg" xmlns:xlink="http://www.w3.org/1999/xlink" x="0px" y="0px"
	 viewBox="0 0 47 49" style="enable-background:new 0 0 47 49;" xml:space="preserve">
<style type="text/css">
	.st0{fill:#F7F7F7;}
</style>
<path class="st0" d="M39.9,17.1c1.2-4.6,3.6-9.3,7.1-14.3L44.2,0c-5.3,4.7-9.5,10.5-12.5,17.4s-4.5,13.1-4.5,18.5c0,4.5,1,7.8,3,9.9
	c1.9,2.1,4.5,3.2,7.7,3.2c2.8,0,5-1,6.6-3c1.7-2,2.5-4.4,2.5-7.2c0-2.6-0.9-4.7-2.6-6.3c-1.8-1.7-3.9-2.5-6.5-2.5
	C37.9,26,38.6,21.7,39.9,17.1z M12.7,17.1c1.3-4.6,3.7-9.3,7.1-14.3L17,0C11.7,4.7,7.5,10.5,4.5,17.4S0,30.5,0,35.9
	c0,4.5,1,7.8,3,9.9S7.6,49,10.8,49c2.8,0,5-1,6.6-3s2.4-4.4,2.4-7.2c0-2.6-0.9-4.7-2.6-6.3c-1.7-1.6-3.9-2.5-6.4-2.5
	C10.8,26,11.4,21.7,12.7,17.1z"/>
</svg>
