<?xml version="1.0" encoding="utf-8"?>
<!-- Generator: Adobe Illustrator 20.1.0, SVG Export Plug-In . SVG Version: 6.00 Build 0)  -->
<svg version="1.1" id="Layer_1" xmlns="http://www.w3.org/2000/svg" xmlns:xlink="http://www.w3.org/1999/xlink" x="0px" y="0px"
	 viewBox="0 0 18 18" style="enable-background:new 0 0 18 18;" xml:space="preserve">
<style type="text/css">
	.st0{fill-rule:evenodd;clip-rule:evenodd;}
</style>
<path class="st0" d="M17.9,16.6c0.2,0.4,0.1,0.8-0.2,1.1c-0.3,0.3-0.8,0.4-1.1,0.2L16.5,18l-3.6-3.6c-1.3,1-3,1.7-4.9,1.7
	c-4.4,0-8-3.6-8-8c0-4.4,3.6-8,8-8s8,3.6,8,8c0,1.8-0.6,3.5-1.7,4.9L17.9,16.6L17.9,16.6z M8,2C4.7,2,2,4.7,2,8c0,3.3,2.7,6,6,6
	c3.3,0,6-2.7,6-6C14,4.7,11.3,2,8,2z" fill="#fff"/>
</svg>
