<?xml version="1.0" encoding="utf-8"?>
<!-- Generator: Adobe Illustrator 20.1.0, SVG Export Plug-In . SVG Version: 6.00 Build 0)  -->
<svg version="1.1" id="Layer_1" xmlns="http://www.w3.org/2000/svg" xmlns:xlink="http://www.w3.org/1999/xlink" x="0px" y="0px"
	 viewBox="0 0 40 40" style="enable-background:new 0 0 40 40;" xml:space="preserve">
<path d="M26,20.6c-0.7-0.8-1.6-1.4-2.7-1.6v-0.1c0.8-0.4,1.4-1,1.9-1.7c0.4-0.7,0.7-1.6,0.7-2.6c0-0.8-0.2-1.6-0.5-2.2
	c-0.3-0.6-0.8-1.2-1.5-1.6c-0.6-0.4-1.3-0.6-1.9-0.7c-0.7-0.1-1.7-0.2-3.1-0.2H12v20h7.6c1.3,0,2.3-0.1,3.1-0.4
	c0.8-0.3,1.6-0.7,2.3-1.3c0.6-0.5,1.1-1.1,1.4-1.9c0.3-0.8,0.5-1.6,0.5-2.6C27,22.5,26.7,21.5,26,20.6z M21,16.8
	c-0.1,0.3-0.4,0.6-0.8,0.8c-0.3,0.2-0.7,0.2-1.2,0.3c-0.5,0-1.1,0-1.8,0h-0.7v-4.2h0.4c0.9,0,1.6,0,2.1,0c0.5,0,0.9,0.1,1.2,0.2
	c0.4,0.2,0.6,0.4,0.8,0.7c0.1,0.3,0.2,0.7,0.2,1C21.2,16.1,21.1,16.5,21,16.8z M22,25.1c-0.2,0.4-0.5,0.7-1,0.9
	c-0.5,0.2-1,0.3-1.5,0.3c-0.5,0-1.5,0-2.7,0h-0.3v-5h1c0.7,0,1.3,0,1.9,0c0.6,0,1.1,0.1,1.5,0.2c0.5,0.2,0.9,0.4,1.1,0.8
	c0.2,0.3,0.3,0.8,0.3,1.5C22.3,24.3,22.2,24.7,22,25.1z" fill="#ffffff"/>
</svg>
