<?xml version="1.0" encoding="utf-8"?>
<svg version="1.1" id="Capa_1" xmlns="http://www.w3.org/2000/svg" xmlns:xlink="http://www.w3.org/1999/xlink" x="0px" y="0px"
	 viewBox="0 0 16 22" width="16px" height="22px" style="enable-background:new 0 0 16 22;" xml:space="preserve">
<style type="text/css">
	.st0{fill:#1E201D;}
</style>
<path class="st0" d="M2,8.6c-0.5,0.4-1.2,0.4-1.6,0c-0.4-0.4-0.4-1.2,0-1.6l6.8-6.7C7.4,0.1,7.7,0,8,0s0.6,0.1,0.8,0.3L15.7,7
	c0.5,0.4,0.5,1.2,0,1.6c-0.5,0.4-1.2,0.4-1.6,0L9.2,3.8v17C9.2,21.5,8.6,22,8,22s-1.1-0.5-1.1-1.1v-17L2,8.6z"/>
</svg>
