<?xml version="1.0" encoding="utf-8"?>
<!-- Generator: Adobe Illustrator 20.1.0, SVG Export Plug-In . SVG Version: 6.00 Build 0)  -->
<svg version="1.1" id="Layer_1" xmlns="http://www.w3.org/2000/svg" xmlns:xlink="http://www.w3.org/1999/xlink" x="0px" y="0px"
	 viewBox="0 0 91 40" style="enable-background:new 0 0 91 40;" xml:space="preserve">
<style type="text/css">
	.st0{fill-rule:evenodd;clip-rule:evenodd;}
</style>
<path class="st0" d="M89.6,29.2c-0.9,2-2.2,3.5-3.9,4.5s-3.7,1.6-6.1,1.6c-2.3,0-4.4-0.5-6.1-1.5c-1.7-1-3-2.5-3.9-4.5
	c-0.9-2-1.4-4.3-1.4-7.1c0-2.7,0.5-5,1.4-7c0.9-2,2.2-3.5,3.9-4.5c1.7-1,3.7-1.6,6.1-1.6c3.6,0,6.4,1.1,8.4,3.4c2,2.3,3,5.5,3,9.6
	C91,24.9,90.5,27.2,89.6,29.2z M83.5,15.5c-0.8-1.4-2.1-2.1-3.8-2.1c-1.7,0-3,0.7-3.8,2.1c-0.8,1.4-1.3,3.6-1.3,6.7
	c0,3.1,0.4,5.3,1.3,6.7c0.8,1.4,2.1,2.1,3.8,2.1c1.7,0,3-0.7,3.9-2.1c0.8-1.4,1.3-3.6,1.3-6.7S84.3,16.8,83.5,15.5z M60.9,14.2v20.4
	h-6V14.2h-6.5V9.7h19.2l-0.6,4.5H60.9z M31.8,24c-0.6-1.9-6.1-3.5-12.7-3.5C12.5,20.6,7,22.1,6.4,24C2.5,22.6,0,20.3,0,16.9
	C0,12.3,6.4,15,6.4,15c0,2.1,5.7,3.8,12.7,3.8c7,0,12.7-1.7,12.7-3.8c0,0,6.4-2.6,6.4,1.9C38.2,20.3,35.7,22.6,31.8,24z M19.1,17
	c-7,0-12.7-1.7-12.7-3.8v-0.5C6.4,5.7,9.5,0,19.1,0s12.7,5.7,12.7,12.7v0.5C31.8,15.3,26.1,17,19.1,17z M7.2,35.4
	c0,1,0.9,1.8,1.9,1.8c2.3,0,3.4-3.6,7.9-3.6c0.9,0,1.6,0.4,2.1,1c0.5-0.6,1.3-1,2.1-1c4.5,0,5.6,3.6,7.9,3.6c1,0,1.8-0.8,1.8-1.8
	c0-0.2,0-0.4-0.1-0.5c0.6,0.5,1,1.2,1,2c0,2-2.6,3.1-6.8,3.1c-2.5,0-4.9-0.8-6-2.2c-1.1,1.4-3.5,2.2-6,2.2c-4.2,0-6.8-1.1-6.8-3.1
	c0-0.8,0.4-1.5,1-2C7.3,35.1,7.2,35.3,7.2,35.4z"/>
</svg>
