<?xml version="1.0" encoding="utf-8"?>
<!-- Generator: Adobe Illustrator 20.1.0, SVG Export Plug-In . SVG Version: 6.00 Build 0)  -->
<svg version="1.1" id="Layer_1" xmlns="http://www.w3.org/2000/svg" xmlns:xlink="http://www.w3.org/1999/xlink" x="0px" y="0px"
	 viewBox="0 0 40 40" style="enable-background:new 0 0 40 40;" xml:space="preserve">
<style type="text/css">
	.st0{fill-rule:evenodd;clip-rule:evenodd;}
</style>
<path class="st0" d="M27.9,28c-0.1,0.1-0.4,0.2-0.7,0.1l-9.4-2.6l5.5-11.1c0.3-0.5,0-0.9-0.2-1.1c-0.4-0.3-1,0-1.4,0.5l-8.2,11.2
	l-5.1,0.4c-0.1,0-0.1,0-0.2,0c-0.2,0-0.2,0-0.3,0c0-0.1,0.1-0.3,0.5-0.7l15.8-14.6c0.2-0.2,0.4-0.3,0.5-0.2c0.2,0.1,0.4,0.4,0.5,0.9
	L28,27.2C28,27.6,28,27.9,27.9,28z M16.6,25.6l-0.1,0.2l1.2,3.9l-3.1-4l6.4-8.8L16.6,25.6z M18.9,30C18.9,30,18.9,30,18.9,30l-1-3.3
	l2.2,0.6C19.5,28.6,19,29.7,18.9,30z"/>
</svg>
