<?xml version="1.0" encoding="utf-8"?>
<!-- Generator: Adobe Illustrator 20.1.0, SVG Export Plug-In . SVG Version: 6.00 Build 0)  -->
<svg version="1.1" id="Layer_1" xmlns="http://www.w3.org/2000/svg" xmlns:xlink="http://www.w3.org/1999/xlink" x="0px" y="0px"
	 viewBox="0 0 40 40" style="enable-background:new 0 0 40 40;" xml:space="preserve">
<style type="text/css">
	.st0{fill-rule:evenodd;clip-rule:evenodd;}
</style>
<path class="st0" d="M26.1,23c-1.1,0.8-2.4,1.3-3.6,1.7l3.5,3.9c0.7,0.8,0.7,2.1,0,2.9c-0.7,0.8-1.9,0.8-2.6,0L20,27.6l-3.4,3.8
	c-0.4,0.4-0.8,0.6-1.3,0.6c-0.5,0-0.9-0.2-1.3-0.6c-0.7-0.8-0.7-2.1,0-2.9l3.5-3.9c-1.3-0.3-2.5-0.9-3.6-1.7
	c-0.9-0.6-1.1-1.8-0.6-2.8c0.5-0.9,1.7-1.2,2.5-0.6c2.6,1.8,5.8,1.8,8.4,0c0.9-0.6,2-0.3,2.5,0.6C27.3,21.2,27,22.4,26.1,23z
	 M20,19.3c-3.1,0-5.6-2.5-5.6-5.7c0-3.1,2.5-5.7,5.6-5.7c3.1,0,5.6,2.5,5.6,5.7C25.6,16.8,23.1,19.3,20,19.3z M20,11.3
	c-1.3,0-2.3,1-2.3,2.3c0,1.3,1,2.3,2.3,2.3c1.3,0,2.3-1,2.3-2.3C22.3,12.4,21.3,11.3,20,11.3z"/>
</svg>
